<svg width="32" height="32" viewBox="0 0 32 32" fill="none" xmlns="http://www.w3.org/2000/svg">
<g clip-path="url(#clip0_6033_1579)">
<path d="M28.2805 21.1865C27.4323 23.1925 26.1055 24.9601 24.4163 26.3349C22.7271 27.7097 20.7269 28.6497 18.5904 29.0729C16.454 29.496 14.2464 29.3893 12.1607 28.7622C10.075 28.1351 8.17466 27.0066 6.62586 25.4754C5.07705 23.9441 3.92692 22.0568 3.27601 19.9784C2.6251 17.9 2.49325 15.6938 2.89196 13.5527C3.29068 11.4115 4.20782 9.40066 5.56323 7.69586C6.91863 5.99106 8.67101 4.64424 10.6672 3.77315M29.3333 15.9998C29.3333 14.2489 28.9884 12.5151 28.3184 10.8974C27.6483 9.27972 26.6662 7.80986 25.4281 6.57175C24.1899 5.33363 22.7201 4.35151 21.1024 3.68144C19.4847 3.01138 17.7509 2.6665 16 2.6665V15.9998H29.3333Z" stroke="white" stroke-width="2.4" stroke-linecap="round" stroke-linejoin="round"/>
</g>
<defs>
<clipPath id="clip0_6033_1579">
<rect width="32" height="32" fill="white"/>
</clipPath>
</defs>
</svg>
