<svg width="32" height="32" viewBox="0 0 32 32" fill="none" xmlns="http://www.w3.org/2000/svg">
<g clip-path="url(#clip0_6033_1615)">
<path d="M16.1867 13.5264C16.563 13.2441 16.6533 12.717 16.3923 12.3256C16.0821 11.8602 15.4236 11.795 15.0281 12.1905L14.276 12.9426C13.7553 13.4633 12.9111 13.4633 12.3904 12.9426C11.8697 12.4219 11.8697 11.5777 12.3904 11.057L13.1425 10.3049C14.7279 8.7195 17.3674 8.98086 18.6111 10.8464C19.6571 12.4154 19.2952 14.5283 17.7867 15.6597L17.7219 15.7083C17.4772 15.8918 17.3332 16.1799 17.3332 16.4858L17.3332 16.6665C17.3332 17.4029 16.7362 17.9998 15.9998 17.9998C15.2635 17.9998 14.6665 17.4029 14.6665 16.6665L14.6665 16.4858C14.6665 15.3405 15.2057 14.2621 16.1219 13.5749L16.1867 13.5264Z" fill="white"/>
<path d="M14.6665 20.6665C14.6665 21.4029 15.2635 21.9998 15.9998 21.9998C16.7362 21.9998 17.3332 21.4029 17.3332 20.6665C17.3332 19.9301 16.7362 19.3332 15.9998 19.3332C15.2635 19.3332 14.6665 19.9301 14.6665 20.6665Z" fill="white"/>
<path fill-rule="evenodd" clip-rule="evenodd" d="M2.6665 15.9998C2.6665 8.63604 8.63604 2.6665 15.9998 2.6665C23.3636 2.6665 29.3332 8.63604 29.3332 15.9998C29.3332 23.3636 23.3636 29.3332 15.9998 29.3332C8.63604 29.3332 2.6665 23.3636 2.6665 15.9998ZM15.9998 5.33317C10.1088 5.33317 5.33317 10.1088 5.33317 15.9998C5.33317 21.8909 10.1088 26.6665 15.9998 26.6665C21.8909 26.6665 26.6665 21.8909 26.6665 15.9998C26.6665 10.1088 21.8909 5.33317 15.9998 5.33317Z" fill="white"/>
</g>
<defs>
<clipPath id="clip0_6033_1615">
<rect width="32" height="32" fill="white"/>
</clipPath>
</defs>
</svg>
