<svg width="32" height="32" viewBox="0 0 32 32" fill="none" xmlns="http://www.w3.org/2000/svg">
<g clip-path="url(#clip0_6033_1573)">
<path fill-rule="evenodd" clip-rule="evenodd" d="M10 5.20029C10.6628 5.20029 11.2 4.66303 11.2 4.00029C11.2 3.33755 10.6628 2.80029 10 2.80029L7.60005 2.80029C4.94908 2.80029 2.80005 4.94933 2.80005 7.60029L2.80005 24.4003C2.80005 27.0513 4.94908 29.2003 7.60005 29.2003H10C10.6628 29.2003 11.2 28.663 11.2 28.0003C11.2 27.3376 10.6628 26.8003 10 26.8003L7.60005 26.8003C6.27457 26.8003 5.20005 25.7258 5.20005 24.4003L5.20005 7.60029C5.20005 6.27481 6.27457 5.20029 7.60005 5.20029H10ZM9.81817 16.8484C9.59313 16.6233 9.4667 16.3181 9.4667 15.9998C9.4667 15.6816 9.59313 15.3764 9.81817 15.1513L15.1515 9.81798C15.6201 9.34935 16.3799 9.34935 16.8486 9.81798C17.3172 10.2866 17.3172 11.0464 16.8486 11.515L13.5638 14.7998L29.3334 14.7998C29.9961 14.7998 30.5334 15.3371 30.5334 15.9998C30.5334 16.6626 29.9961 17.1998 29.3334 17.1998L13.5638 17.1998L16.8486 20.4846C17.3172 20.9533 17.3172 21.7131 16.8486 22.1817C16.3799 22.6503 15.6201 22.6503 15.1515 22.1817L9.81817 16.8484Z" fill="white"/>
</g>
<defs>
<clipPath id="clip0_6033_1573">
<rect width="32" height="32" fill="white"/>
</clipPath>
</defs>
</svg>
