<svg width="17" height="17" viewBox="0 0 17 17" fill="none" xmlns="http://www.w3.org/2000/svg">
<path fill-rule="evenodd" clip-rule="evenodd" d="M5.84954 2.13909C5.41736 0.842533 3.58342 0.842533 3.15123 2.13909C2.992 2.61678 2.61716 2.99162 2.13947 3.15085C0.842914 3.58303 0.842914 5.41698 2.13947 5.84916C2.61716 6.00839 2.992 6.38323 3.15123 6.86092C3.58342 8.15748 5.41736 8.15748 5.84954 6.86092C6.00877 6.38323 6.38361 6.00839 6.8613 5.84916C8.15786 5.41698 8.15786 3.58303 6.8613 3.15085C6.38361 2.99162 6.00877 2.61678 5.84954 2.13909ZM4.41614 2.56072C4.42688 2.52851 4.4394 2.51898 4.44589 2.51458C4.45651 2.5074 4.47533 2.50001 4.50039 2.50001C4.52544 2.50001 4.54426 2.5074 4.55488 2.51458C4.56137 2.51898 4.57389 2.52851 4.58463 2.56072C4.87657 3.43655 5.56384 4.12382 6.43967 4.41576C6.47188 4.4265 6.48141 4.43902 6.48581 4.44551C6.49299 4.45613 6.50039 4.47495 6.50039 4.50001C6.50039 4.52506 6.49299 4.54388 6.48581 4.5545C6.48141 4.56099 6.47188 4.57351 6.43967 4.58425C5.56384 4.87619 4.87657 5.56346 4.58463 6.43929C4.57389 6.4715 4.56137 6.48103 4.55488 6.48543C4.54426 6.49261 4.52544 6.50001 4.50039 6.50001C4.47533 6.50001 4.45651 6.49261 4.44589 6.48543C4.4394 6.48103 4.42688 6.4715 4.41614 6.43929C4.1242 5.56346 3.43694 4.87619 2.56111 4.58425C2.52889 4.57351 2.51936 4.56099 2.51496 4.5545C2.50778 4.54388 2.50039 4.52506 2.50039 4.50001C2.50039 4.47495 2.50778 4.45613 2.51496 4.44551C2.51936 4.43902 2.52889 4.4265 2.56111 4.41576C3.43694 4.12382 4.1242 3.43655 4.41614 2.56072Z" fill="url(#paint0_linear_0_10760)"/>
<path fill-rule="evenodd" clip-rule="evenodd" d="M5.84954 2.13909C5.41736 0.842533 3.58342 0.842533 3.15123 2.13909C2.992 2.61678 2.61716 2.99162 2.13947 3.15085C0.842914 3.58303 0.842914 5.41698 2.13947 5.84916C2.61716 6.00839 2.992 6.38323 3.15123 6.86092C3.58342 8.15748 5.41736 8.15748 5.84954 6.86092C6.00877 6.38323 6.38361 6.00839 6.8613 5.84916C8.15786 5.41698 8.15786 3.58303 6.8613 3.15085C6.38361 2.99162 6.00877 2.61678 5.84954 2.13909ZM4.41614 2.56072C4.42688 2.52851 4.4394 2.51898 4.44589 2.51458C4.45651 2.5074 4.47533 2.50001 4.50039 2.50001C4.52544 2.50001 4.54426 2.5074 4.55488 2.51458C4.56137 2.51898 4.57389 2.52851 4.58463 2.56072C4.87657 3.43655 5.56384 4.12382 6.43967 4.41576C6.47188 4.4265 6.48141 4.43902 6.48581 4.44551C6.49299 4.45613 6.50039 4.47495 6.50039 4.50001C6.50039 4.52506 6.49299 4.54388 6.48581 4.5545C6.48141 4.56099 6.47188 4.57351 6.43967 4.58425C5.56384 4.87619 4.87657 5.56346 4.58463 6.43929C4.57389 6.4715 4.56137 6.48103 4.55488 6.48543C4.54426 6.49261 4.52544 6.50001 4.50039 6.50001C4.47533 6.50001 4.45651 6.49261 4.44589 6.48543C4.4394 6.48103 4.42688 6.4715 4.41614 6.43929C4.1242 5.56346 3.43694 4.87619 2.56111 4.58425C2.52889 4.57351 2.51936 4.56099 2.51496 4.5545C2.50778 4.54388 2.50039 4.52506 2.50039 4.50001C2.50039 4.47495 2.50778 4.45613 2.51496 4.44551C2.51936 4.43902 2.52889 4.4265 2.56111 4.41576C3.43694 4.12382 4.1242 3.43655 4.41614 2.56072Z" fill="url(#paint1_linear_0_10760)"/>
<path fill-rule="evenodd" clip-rule="evenodd" d="M12.3871 6.52651C11.7827 4.71339 9.21808 4.71339 8.61371 6.52651C8.28529 7.51177 7.51216 8.28491 6.5269 8.61333C4.71377 9.2177 4.71377 11.7823 6.5269 12.3867C7.51216 12.7151 8.28529 13.4882 8.61371 14.4735C9.21808 16.2866 11.7827 16.2866 12.3871 14.4735C12.7155 13.4882 13.4886 12.7151 14.4739 12.3867C16.287 11.7823 16.287 9.2177 14.4739 8.61333C13.4886 8.28491 12.7155 7.51177 12.3871 6.52651ZM9.87862 6.94815C10.0778 6.35062 10.923 6.35062 11.1222 6.94815C11.5833 8.33155 12.6688 9.4171 14.0522 9.87824C14.6498 10.0774 14.6498 10.9226 14.0522 11.1218C12.6688 11.5829 11.5833 12.6685 11.1222 14.0519C10.923 14.6494 10.0778 14.6494 9.87862 14.0519C9.41749 12.6685 8.33193 11.5829 6.94853 11.1218C6.351 10.9226 6.351 10.0774 6.94853 9.87824C8.33193 9.4171 9.41749 8.33155 9.87862 6.94815Z" fill="url(#paint2_linear_0_10760)"/>
<path fill-rule="evenodd" clip-rule="evenodd" d="M12.3871 6.52651C11.7827 4.71339 9.21808 4.71339 8.61371 6.52651C8.28529 7.51177 7.51216 8.28491 6.5269 8.61333C4.71377 9.2177 4.71377 11.7823 6.5269 12.3867C7.51216 12.7151 8.28529 13.4882 8.61371 14.4735C9.21808 16.2866 11.7827 16.2866 12.3871 14.4735C12.7155 13.4882 13.4886 12.7151 14.4739 12.3867C16.287 11.7823 16.287 9.2177 14.4739 8.61333C13.4886 8.28491 12.7155 7.51177 12.3871 6.52651ZM9.87862 6.94815C10.0778 6.35062 10.923 6.35062 11.1222 6.94815C11.5833 8.33155 12.6688 9.4171 14.0522 9.87824C14.6498 10.0774 14.6498 10.9226 14.0522 11.1218C12.6688 11.5829 11.5833 12.6685 11.1222 14.0519C10.923 14.6494 10.0778 14.6494 9.87862 14.0519C9.41749 12.6685 8.33193 11.5829 6.94853 11.1218C6.351 10.9226 6.351 10.0774 6.94853 9.87824C8.33193 9.4171 9.41749 8.33155 9.87862 6.94815Z" fill="url(#paint3_linear_0_10760)"/>
<defs>
<linearGradient id="paint0_linear_0_10760" x1="8.50039" y1="1.16667" x2="8.50039" y2="15.8333" gradientUnits="userSpaceOnUse">
<stop stop-color="#2722F8"/>
<stop offset="1" stop-color="#7E05E6"/>
</linearGradient>
<linearGradient id="paint1_linear_0_10760" x1="1.16705" y1="8.5" x2="15.8337" y2="8.5" gradientUnits="userSpaceOnUse">
<stop stop-color="#60A5FA"/>
<stop offset="1" stop-color="#2563EB"/>
</linearGradient>
<linearGradient id="paint2_linear_0_10760" x1="8.50039" y1="1.16667" x2="8.50039" y2="15.8333" gradientUnits="userSpaceOnUse">
<stop stop-color="#2722F8"/>
<stop offset="1" stop-color="#7E05E6"/>
</linearGradient>
<linearGradient id="paint3_linear_0_10760" x1="1.16705" y1="8.5" x2="15.8337" y2="8.5" gradientUnits="userSpaceOnUse">
<stop stop-color="#60A5FA"/>
<stop offset="1" stop-color="#2563EB"/>
</linearGradient>
</defs>
</svg>
