<svg width="492" height="492" viewBox="0 0 492 492" fill="none" xmlns="http://www.w3.org/2000/svg">
<g clip-path="url(#clip0_6044_1775)">
<g clip-path="url(#clip1_6044_1775)">
<path d="M254.667 265.398V261.065C254.667 258.767 253.753 256.562 252.128 254.937C250.503 253.312 248.298 252.398 246 252.398H233C230.701 252.398 228.497 253.312 226.872 254.937C225.246 256.562 224.333 258.767 224.333 261.065V265.398M267.667 265.398V261.065C267.665 259.145 267.026 257.279 265.85 255.762C264.673 254.244 263.026 253.16 261.167 252.68M254.667 226.68C256.531 227.157 258.183 228.242 259.363 229.762C260.543 231.282 261.184 233.152 261.184 235.076C261.184 237 260.543 238.87 259.363 240.39C258.183 241.91 256.531 242.994 254.667 243.472M248.167 235.065C248.167 239.852 244.286 243.732 239.5 243.732C234.713 243.732 230.833 239.852 230.833 235.065C230.833 230.279 234.713 226.398 239.5 226.398C244.286 226.398 248.167 230.279 248.167 235.065Z" stroke="url(#paint0_linear_6044_1775)" stroke-width="4.33333" stroke-linecap="round" stroke-linejoin="round"/>
<path opacity="0.05" d="M246 491.758C381.724 491.758 491.75 381.732 491.75 246.008C491.75 110.284 381.724 0.257812 246 0.257812C110.276 0.257812 0.25 110.284 0.25 246.008C0.25 381.732 110.276 491.758 246 491.758Z" stroke="#99BCFE" stroke-width="0.5"/>
<path opacity="0.08" d="M246 422.758C343.616 422.758 422.75 343.624 422.75 246.008C422.75 148.391 343.616 69.2578 246 69.2578C148.384 69.2578 69.25 148.391 69.25 246.008C69.25 343.624 148.384 422.758 246 422.758Z" stroke="#99BCFE" stroke-width="0.5"/>
<path opacity="0.1" d="M246 361.758C309.927 361.758 361.75 309.935 361.75 246.008C361.75 182.081 309.927 130.258 246 130.258C182.073 130.258 130.25 182.081 130.25 246.008C130.25 309.935 182.073 361.758 246 361.758Z" stroke="#99BCFE" stroke-width="0.5"/>
<path opacity="0.15" d="M246 313.758C283.417 313.758 313.75 283.425 313.75 246.008C313.75 208.591 283.417 178.258 246 178.258C208.583 178.258 178.25 208.591 178.25 246.008C178.25 283.425 208.583 313.758 246 313.758Z" stroke="#99BCFE" stroke-width="0.5"/>
</g>
</g>
<defs>
<linearGradient id="paint0_linear_6044_1775" x1="224.333" y1="245.898" x2="267.667" y2="245.898" gradientUnits="userSpaceOnUse">
<stop stop-color="#60A5FA"/>
<stop offset="1" stop-color="#2563EB"/>
</linearGradient>
<clipPath id="clip0_6044_1775">
<rect width="486" height="412" fill="white"/>
</clipPath>
<clipPath id="clip1_6044_1775">
<rect width="492" height="492" fill="white" transform="translate(0 0.0078125)"/>
</clipPath>
</defs>
</svg>
