<svg width="1042" height="1042" viewBox="0 0 1042 1042" fill="none" xmlns="http://www.w3.org/2000/svg">
<g clip-path="url(#clip0_6044_1759)">
<g clip-path="url(#clip1_6044_1759)">
<path d="M567.611 566.944H473.722C471.798 566.944 470.202 565.348 470.202 563.424C470.202 561.499 471.798 559.903 473.722 559.903H567.611C569.536 559.903 571.132 561.499 571.132 563.424C571.132 565.348 569.536 566.944 567.611 566.944Z" fill="url(#paint0_linear_6044_1759)"/>
<path d="M510.104 482.446V566.945H531.229V482.446C531.229 477.282 529.117 473.057 522.779 473.057H518.554C512.217 473.057 510.104 477.282 510.104 482.446Z" fill="url(#paint1_linear_6044_1759)"/>
<path d="M478.417 510.612V566.945H497.195V510.612C497.195 505.449 495.317 501.224 489.684 501.224H485.928C480.295 501.224 478.417 505.449 478.417 510.612Z" fill="url(#paint2_linear_6044_1759)"/>
<path d="M544.139 534.084V566.945H562.917V534.084C562.917 528.92 561.039 524.695 555.406 524.695H551.65C546.017 524.695 544.139 528.92 544.139 534.084Z" fill="url(#paint3_linear_6044_1759)"/>
<path opacity="0.05" d="M520.964 1041.34C808.589 1041.34 1041.76 808.178 1041.76 520.553C1041.76 232.928 808.589 -0.238281 520.964 -0.238281C233.338 -0.238281 0.172119 232.928 0.172119 520.553C0.172119 808.178 233.338 1041.34 520.964 1041.34Z" stroke="#99BCFE" stroke-width="1.0596"/>
<path opacity="0.08" d="M520.964 895.123C727.831 895.123 895.531 727.423 895.531 520.555C895.531 313.688 727.831 145.988 520.964 145.988C314.096 145.988 146.396 313.688 146.396 520.555C146.396 727.423 314.096 895.123 520.964 895.123Z" stroke="#99BCFE" stroke-width="1.0596"/>
<path opacity="0.1" d="M520.963 765.851C656.437 765.851 766.26 656.028 766.26 520.554C766.26 385.081 656.437 275.258 520.963 275.258C385.49 275.258 275.667 385.081 275.667 520.554C275.667 656.028 385.49 765.851 520.963 765.851Z" stroke="#99BCFE" stroke-width="1.0596"/>
<path opacity="0.15" d="M520.963 664.131C600.258 664.131 664.539 599.85 664.539 520.556C664.539 441.261 600.258 376.98 520.963 376.98C441.669 376.98 377.388 441.261 377.388 520.556C377.388 599.85 441.669 664.131 520.963 664.131Z" stroke="#99BCFE" stroke-width="1.0596"/>
</g>
</g>
<defs>
<linearGradient id="paint0_linear_6044_1759" x1="470.202" y1="563.424" x2="571.132" y2="563.424" gradientUnits="userSpaceOnUse">
<stop stop-color="#60A5FA"/>
<stop offset="1" stop-color="#2563EB"/>
</linearGradient>
<linearGradient id="paint1_linear_6044_1759" x1="510.104" y1="520.001" x2="531.229" y2="520.001" gradientUnits="userSpaceOnUse">
<stop stop-color="#60A5FA"/>
<stop offset="1" stop-color="#2563EB"/>
</linearGradient>
<linearGradient id="paint2_linear_6044_1759" x1="478.417" y1="534.085" x2="497.195" y2="534.085" gradientUnits="userSpaceOnUse">
<stop stop-color="#60A5FA"/>
<stop offset="1" stop-color="#2563EB"/>
</linearGradient>
<linearGradient id="paint3_linear_6044_1759" x1="544.139" y1="545.82" x2="562.917" y2="545.82" gradientUnits="userSpaceOnUse">
<stop stop-color="#60A5FA"/>
<stop offset="1" stop-color="#2563EB"/>
</linearGradient>
<clipPath id="clip0_6044_1759">
<rect width="1029.93" height="873.107" fill="white"/>
</clipPath>
<clipPath id="clip1_6044_1759">
<rect width="1042.64" height="1042.64" fill="white" transform="translate(-0.357422 -0.765625)"/>
</clipPath>
</defs>
</svg>
