<svg width="588" height="492" viewBox="0 0 588 492" fill="none" xmlns="http://www.w3.org/2000/svg">
<g clip-path="url(#clip0_6044_1785)">
<g clip-path="url(#clip1_6044_1785)">
<path d="M252.248 222.865L252.317 242.815L261.828 242.819C264.383 242.819 265.886 245.401 264.431 247.291L245.434 271.984C243.667 274.281 239.665 273.155 239.665 270.361L239.661 250.434L230.172 250.436C227.621 250.436 226.117 247.86 227.564 245.969L246.474 221.258C248.234 218.958 252.238 220.072 252.248 222.865Z" fill="url(#paint0_linear_6044_1785)"/>
<path opacity="0.05" d="M246 491.77C381.724 491.77 491.75 381.744 491.75 246.02C491.75 110.296 381.724 0.269531 246 0.269531C110.276 0.269531 0.25 110.296 0.25 246.02C0.25 381.744 110.276 491.77 246 491.77Z" stroke="#8888E4" stroke-width="0.5"/>
<path opacity="0.1" d="M246 422.77C343.616 422.77 422.75 343.636 422.75 246.02C422.75 148.403 343.616 69.2695 246 69.2695C148.384 69.2695 69.25 148.403 69.25 246.02C69.25 343.636 148.384 422.77 246 422.77Z" stroke="#8888E4" stroke-width="0.5"/>
<path opacity="0.2" d="M246 361.77C309.927 361.77 361.75 309.946 361.75 246.02C361.75 182.093 309.927 130.27 246 130.27C182.073 130.27 130.25 182.093 130.25 246.02C130.25 309.946 182.073 361.77 246 361.77Z" stroke="#8888E4" stroke-width="0.5"/>
<path opacity="0.3" d="M246 313.77C283.417 313.77 313.75 283.437 313.75 246.02C313.75 208.602 283.417 178.27 246 178.27C208.583 178.27 178.25 208.602 178.25 246.02C178.25 283.437 208.583 313.77 246 313.77Z" stroke="#8888E4" stroke-width="0.5"/>
</g>
</g>
<defs>
<linearGradient id="paint0_linear_6044_1785" x1="227" y1="246.618" x2="265" y2="246.618" gradientUnits="userSpaceOnUse">
<stop stop-color="#60A5FA"/>
<stop offset="1" stop-color="#2563EB"/>
</linearGradient>
<clipPath id="clip0_6044_1785">
<rect width="588" height="366.38" fill="white"/>
</clipPath>
<clipPath id="clip1_6044_1785">
<rect width="492" height="492" fill="white" transform="translate(0 0.0195312)"/>
</clipPath>
</defs>
</svg>
